# xmcd
#
# Track frame offsets:
#	150
#	17793
#	47338
#	73558
#	110225
#	133407
#	157478
#	178262
#	213481
#	225302
#	238490
#
# Disc length: 3573 seconds
#
# Revision: 1
# Processed by: cddbd v1.5.1PL0 Copyright (c) Steve Scherf et al.
# Submitted via: audiograbber 1.83.01
#
DISCID=a90df30b
DTITLE=Dave Matthews Band - Live in Seattle 1994
DYEAR=1994
DGENRE=
TTITLE0=Recently
TTITLE1=Dancing Nancies
TTITLE2=Pay for What You Get
TTITLE3=Jimmi Thing
TTITLE4=Ants Marching
TTITLE5=Tripping Billies
TTITLE6=Don't Burn the Pig
TTITLE7=All Along the Watchtower
TTITLE8=Lie in our Graves
TTITLE9=I'll Back You Up
TTITLE10=Satellite
EXTD=
EXTT0=
EXTT1=
EXTT2=
EXTT3=
EXTT4=
EXTT5=
EXTT6=
EXTT7=
EXTT8=
EXTT9=
EXTT10=
PLAYORDER=
